<?xml version="1.0" encoding="UTF-8"?>
<!DOCTYPE svg PUBLIC "-//W3C//DTD SVG 1.1//EN" "http://www.w3.org/Graphics/SVG/1.1/DTD/svg11.dtd">
<!-- Creator: CorelDRAW -->
<svg xmlns="http://www.w3.org/2000/svg" xml:space="preserve" width="35px" height="26px" version="1.1" style="shape-rendering:geometricPrecision; text-rendering:geometricPrecision; image-rendering:optimizeQuality; fill-rule:evenodd; clip-rule:evenodd"
viewBox="0 0 24.83 18.62"
 xmlns:xlink="http://www.w3.org/1999/xlink"
 xmlns:xodm="http://www.corel.com/coreldraw/odm/2003">
 <defs>
  <style type="text/css">
   <![CDATA[
    .fil3 {fill:none}
    .fil5 {fill:#003ADC}
    .fil1 {fill:#CCCCCC}
    .fil2 {fill:#E6E6E6}
    .fil0 {fill:white}
    .fil4 {fill:#406AD1;fill-rule:nonzero}
   ]]>
  </style>
    <clipPath id="id0">
     <path d="M0 16.97l0 -15.32c0,-0.91 0.74,-1.65 1.65,-1.65l21.53 0c0.91,0 1.65,0.74 1.65,1.65l0 15.32c0,0.91 -0.74,1.65 -1.65,1.65l-21.53 0c-0.91,0 -1.65,-0.74 -1.65,-1.65z"/>
    </clipPath>
      <mask id="id1">
  <linearGradient id="id2" gradientUnits="userSpaceOnUse" x1="12.93" y1="-2.13" x2="12.93" y2="15.68">
   <stop offset="0" style="stop-opacity:1; stop-color:white"/>
   <stop offset="1" style="stop-opacity:0; stop-color:white"/>
  </linearGradient>
       <rect style="fill:url(#id2)" x="-2.98" y="-4.84" width="30.79" height="27.92"/>
      </mask>
      <mask id="id3">
  <linearGradient id="id4" gradientUnits="userSpaceOnUse" x1="13.21" y1="-8.22" x2="13.21" y2="19.23">
   <stop offset="0" style="stop-opacity:1; stop-color:white"/>
   <stop offset="1" style="stop-opacity:0; stop-color:white"/>
  </linearGradient>
       <rect style="fill:url(#id4)" x="-11.31" y="-12.4" width="47.45" height="43.04"/>
      </mask>
    <mask id="id5">
  <linearGradient id="id6" gradientUnits="userSpaceOnUse" x1="9.16" y1="13.82" x2="8.23" y2="5.95">
   <stop offset="0" style="stop-opacity:1; stop-color:white"/>
   <stop offset="1" style="stop-opacity:0; stop-color:white"/>
  </linearGradient>
     <rect style="fill:url(#id6)" x="6.54" y="0.95" width="11.07" height="9.54"/>
    </mask>
 </defs>
 <g id="Camada_x0020_1">
  <metadata id="CorelCorpID_0Corel-Layer"/>
  <g id="_2329402295776">
   <path class="fil0" d="M0 16.97l0 -15.32c0,-0.91 0.74,-1.65 1.65,-1.65l21.53 0c0.91,0 1.65,0.74 1.65,1.65l0 15.32c0,0.91 -0.74,1.65 -1.65,1.65l-21.53 0c-0.91,0 -1.65,-0.74 -1.65,-1.65z"/>
   <g style="clip-path:url(#id0)">
    <g>
     <path id="_1" class="fil1" style="mask:url(#id1)" d="M14.12 -4.3l13.53 25.56c0.19,0.37 0.21,0.81 0.04,1.2 -0.17,0.39 -0.48,0.62 -0.84,0.62l-7.63 0c-0.01,-0.08 -0.02,-0.16 -0.03,-0.23 -0.05,-0.46 -0.1,-0.93 -0.15,-1.39 -0.04,-0.45 -0.09,-0.91 -0.14,-1.36 -0.05,-0.58 -0.24,-1.4 -0.45,-1.96 -2.2,-5.6 -9.87,-5.6 -12.07,0 -0.21,0.56 -0.4,1.38 -0.45,1.96 -0.06,0.45 -0.1,0.91 -0.14,1.36 -0.05,0.46 -0.1,0.93 -0.15,1.39 -0.01,0.07 -0.02,0.15 -0.03,0.23l-7.63 0c-0.36,0 -0.67,-0.23 -0.84,-0.62 -0.17,-0.39 -0.16,-0.83 0.04,-1.2l13.53 -25.56c0.18,-0.35 0.47,-0.54 0.8,-0.54l1.81 0c0.33,0 0.62,0.19 0.8,0.54z"/>
     <path class="fil2" style="mask:url(#id3)" d="M15.04 -11.57l20.86 39.41c0.3,0.57 0.32,1.25 0.06,1.85 -0.27,0.6 -0.74,0.95 -1.3,0.95l-11.75 0c-0.02,-0.12 -0.03,-0.24 -0.05,-0.35 -0.08,-0.72 -0.16,-1.44 -0.23,-2.14 -0.07,-0.7 -0.13,-1.41 -0.22,-2.1 -0.07,-0.9 -0.36,-2.17 -0.7,-3.03 -3.38,-8.63 -15.21,-8.63 -18.59,0 -0.34,0.86 -0.63,2.13 -0.7,3.03 -0.09,0.69 -0.15,1.4 -0.22,2.1 -0.07,0.7 -0.15,1.42 -0.23,2.14 -0.02,0.11 -0.03,0.23 -0.05,0.35l-11.75 0c-0.56,0 -1.04,-0.35 -1.3,-0.95 -0.26,-0.6 -0.24,-1.28 0.06,-1.85l20.86 -39.41c0.28,-0.53 0.72,-0.83 1.23,-0.83l2.79 0c0.51,0 0.95,0.3 1.23,0.83z"/>
    </g>
   </g>
   <path class="fil3" d="M0 16.97l0 -15.32c0,-0.91 0.74,-1.65 1.65,-1.65l21.53 0c0.91,0 1.65,0.74 1.65,1.65l0 15.32c0,0.91 -0.74,1.65 -1.65,1.65l-21.53 0c-0.91,0 -1.65,-0.74 -1.65,-1.65z"/>
   <path class="fil4" d="M13.41 1.26l7.92 14.97c0.11,0.21 0.12,0.47 0.02,0.7 -0.1,0.23 -0.28,0.36 -0.49,0.36l-4.46 0c-0.01,-0.05 -0.01,-0.09 -0.02,-0.13 -0.03,-0.27 -0.06,-0.55 -0.09,-0.81 -0.02,-0.27 -0.05,-0.54 -0.08,-0.8 -0.03,-0.35 -0.14,-0.83 -0.27,-1.15 -1.28,-3.28 -5.77,-3.28 -7.05,0 -0.13,0.32 -0.24,0.8 -0.27,1.15 -0.03,0.26 -0.06,0.53 -0.08,0.8 -0.03,0.26 -0.06,0.54 -0.09,0.81 -0.01,0.04 -0.01,0.08 -0.02,0.13l-4.46 0c-0.21,0 -0.39,-0.13 -0.49,-0.36 -0.1,-0.23 -0.1,-0.49 0.02,-0.7l7.92 -14.97c0.1,-0.2 0.27,-0.31 0.47,-0.31l1.05 0c0.2,0 0.37,0.11 0.47,0.31zm-1.27 5.47c-1.14,0.13 -2.13,1.19 -1.95,2.52 0.15,1.15 1.2,2.11 2.54,1.93 1.11,-0.14 2.09,-1.2 1.91,-2.52 -0.16,-1.13 -1.17,-2.08 -2.5,-1.93z"/>
   <path class="fil5" style="mask:url(#id5)" d="M6.54 10.49c1.22,-0.31 2.47,-0.56 3.76,-0.76 -0.05,-0.15 -0.09,-0.32 -0.11,-0.48 -0.18,-1.33 0.81,-2.39 1.95,-2.52 1.33,-0.15 2.34,0.8 2.5,1.93 0.03,0.21 0.03,0.42 0,0.62 0.97,-0.05 1.97,-0.08 2.97,-0.08l-4.2 -7.94c-0.1,-0.2 -0.27,-0.31 -0.47,-0.31l-1.05 0c-0.2,0 -0.37,0.11 -0.47,0.31l-4.88 9.23z"/>
  </g>
 </g>
</svg>
